<svg xmlns="http://www.w3.org/2000/svg" version="1.1" xmlns:xlink="http://www.w3.org/1999/xlink" xmlns:svgjs="http://svgjs.dev/svgjs" viewBox="0 0 600 600"><path d="M95.4188461303711,262.30364990234375C87.69633356730144,207.32982889811197,30.8900515238444,119.24083964029948,80.49738311767578,97.3822021484375C130.10471471150717,75.52356465657552,330.7591718037923,100.52355448404948,393.0628356933594,131.15182495117188C455.36649958292645,161.78009541829428,458.2460683186849,233.24606323242188,454.3193664550781,281.1518249511719C450.3926645914714,329.0575866699219,424.0837758382161,394.2408447265625,369.50262451171875,418.5863952636719C314.9214731852214,442.93194580078125,172.51308822631836,453.2722524007161,126.83245849609375,427.2251281738281C81.15182876586914,401.1780039469401,103.14135869344075,317.2774709065755,95.4188461303711,262.30364990234375C87.69633356730144,207.32982889811197,30.8900515238444,119.24083964029948,80.49738311767578,97.3822021484375" fill="url(&quot;#ssshape-pattern5&quot;)" fill-opacity="0.28" stroke-width="0" stroke="hsl(340, 45%, 30%)"></path><defs><pattern id="ssshape-pattern5" width="20" height="20" patternUnits="userSpaceOnUse" patternTransform="scale(1) rotate(0)">
  <rect width="100%" height="100%" fill="hsl(50, 98%, 60%)"></rect>
  <rect width="5" height="5" fill="hsl(50, 98%, 42%)"></rect>
</pattern></defs><path d="M83.63872302389927 160.9947485674129C75.91621046082962 106.02092756318112 19.10992841737258 17.931938305368632 68.71726001120396 -3.9266991864933516C118.32459160503535 -25.785336678355335 318.9790486973205 -0.7853468508813677 381.28271258688756 29.842923616241023C443.58637647645463 60.47119408336343 446.46594521221306 131.93716189749102 442.5392433486063 179.84292361624102C438.61254148499955 227.74868533499102 412.3036527317443 292.93194339163165 357.72250140524693 317.277493928741C303.14135007874955 341.6230444658504 160.73296511984654 351.9633510657853 115.05233538962193 325.9162268388973C69.37170565939732 299.86910261200927 91.36123558696893 215.96856957164465 83.63872302389927 160.9947485674129C75.91621046082962 106.02092756318112 19.10992841737258 17.931938305368632 68.71726001120396 -3.9266991864933516 " fill-opacity="0.28" fill="hsl(50, 98%, 60%)" opacity="1" stroke-opacity="1" stroke-width="0" stroke="hsl(340, 45%, 30%)" transform="matrix(1,0,0,1,75,75)"></path></svg>