<svg xmlns="http://www.w3.org/2000/svg" version="1.1" xmlns:xlink="http://www.w3.org/1999/xlink" xmlns:svgjs="http://svgjs.dev/svgjs" viewBox="0 0 600 600"><path d="M108.76960774366785 288.21987691350034C101.04709518059819 233.24605590926853 44.24081313714115 145.15706665145603 93.84814473097254 123.29842915959406C143.45547632480393 101.43979166773208 344.10993341708905 126.43978149520605 406.41359730665613 157.06805196232844C468.7172611962232 187.69632242945084 471.59682993198163 259.16229024357847 467.6701280683749 307.06805196232847C463.7434262047681 354.97381368107847 437.4345374515129 420.1570717377191 382.8533861250155 444.50262227482847C328.2722347985181 468.84817281193784 185.8638498396151 479.18847941187266 140.1832201093905 453.1413551849847C94.5025903791659 427.09423095809666 116.4921203067375 343.19369791773204 108.76960774366785 288.21987691350034C101.04709518059819 233.24605590926853 44.24081313714115 145.15706665145603 93.84814473097254 123.29842915959406 " fill="url(&quot;#ssshape-pattern5&quot;)" fill-opacity="0.28" stroke-width="0" stroke="hsl(340, 45%, 30%)"></path><defs><pattern id="ssshape-pattern5" width="20" height="20" patternUnits="userSpaceOnUse">
  <rect width="100%" height="100%" fill="hsl(129, 100%, 49%)"></rect>
  <rect width="5" height="5" fill="hsl(128, 8%, 81%)"></rect>
</pattern></defs><path d="M83.63872302389927 160.9947485674129C75.91621046082962 106.02092756318112 19.10992841737258 17.931938305368632 68.71726001120396 -3.9266991864933516C118.32459160503535 -25.785336678355335 318.9790486973205 -0.7853468508813677 381.28271258688756 29.842923616241023C443.58637647645463 60.47119408336343 446.46594521221306 131.93716189749102 442.5392433486063 179.84292361624102C438.61254148499955 227.74868533499102 412.3036527317443 292.93194339163165 357.72250140524693 317.277493928741C303.14135007874955 341.6230444658504 160.73296511984654 351.9633510657853 115.05233538962193 325.9162268388973C69.37170565939732 299.86910261200927 91.36123558696893 215.96856957164465 83.63872302389927 160.9947485674129C75.91621046082962 106.02092756318112 19.10992841737258 17.931938305368632 68.71726001120396 -3.9266991864933516 " fill-opacity="0.28" fill="hsl(105, 57%, 65%)" opacity="1" stroke-opacity="1" stroke-width="0" stroke="hsl(340, 45%, 30%)" transform="matrix(1,0,0,1,75,75)"></path></svg>