<svg xmlns="http://www.w3.org/2000/svg" version="1.1" xmlns:xlink="http://www.w3.org/1999/xlink" xmlns:svgjs="http://svgjs.dev/svgjs" viewBox="0 0 800 400"><path d="M13.004484176635742,196.4125518798828C13.004484176635742,190.50074279785156,9.457398799260456,179.21075523376464,13.004484176635742,165.0224151611328C16.551569554011028,150.83407508850098,20.521675068537398,128.33931124369303,31.838565826416016,121.07623291015625C43.15545658429463,113.81315457661947,60.763825842539475,113.45141690572103,73.09416961669922,126.4573974609375C85.42451339085896,139.46337801615397,86.83707024892172,175.77728693644207,97.30941772460938,190.13453674316406C107.78176520029703,204.49178654988606,122.78774536132812,210.46038981119793,128.69955444335938,202.69058227539062C134.61136352539063,194.92077473958332,128.0239183807373,165.76980295817057,128.69955444335938,148.87892150878906C129.37519050598144,131.98804005940755,129.58446118672688,121.44992680867513,132.28700256347656,113.00448608398438C134.98954394022624,104.55904535929362,138.3198849741618,98.96861012776692,143.04933166503906,104.03587341308594C147.77877835591633,109.10313669840495,150.81166661580403,123.18833424886068,157.39910888671875,139.91030883789062C163.98655115763347,156.63228342692057,169.58146052042645,185.39313095092774,178.0269012451172,192.8251190185547C186.47234196980793,200.25710708618163,197.17489082336425,194.91180458068848,202.24215698242188,179.3721923828125C207.3094231414795,163.83258018493652,200.8789286295573,126.19133116404215,204.9327392578125,110.31390380859375C208.9865498860677,94.43647645314535,217.17937291463215,86.62182764689128,223.76681518554688,95.06726837158203C230.3542574564616,103.51270909627279,234.50522608439127,136.4080734380086,239.91030883789062,155.15695190429688C245.31539159138998,173.90583037058514,248.41255900065104,197.82810315450033,252.46636962890625,194.61883544921875C256.5201802571615,191.40956774393717,259.91478805541993,157.71001523335775,261.4349670410156,138.11659240722656C262.9551460266113,118.52316958109537,255.4708474222819,93.28550341288249,260.5381164550781,90.58296203613281C265.60538548787434,87.88042065938313,282.2601043701172,107.38266006469726,288.3408203125,123.76681518554688C294.4215362548828,140.1509703063965,286.57548095703123,165.4170411936442,292.8251037597656,177.57847595214844C299.0747265625,189.73991071065268,316.2884823099772,196.95515551249187,321.524658203125,188.34080505371094C326.7608340962728,179.72645459493,318.938716023763,151.76980286916097,320.6278076171875,131.83856201171875C322.316899210612,111.90732115427653,325.2571159871419,84.53811289469401,330.4932861328125,82.5112075805664C335.7294562784831,80.4843022664388,337.95813491821286,103.50971396128337,348.43048095703125,121.07623291015625C358.90282699584964,138.64275185902915,375.62631154378255,165.98804667154948,386.0986633300781,175.78475952148438C396.5710151163737,185.58147237141927,402.0089833577474,183.39761642456054,404.035888671875,173.09417724609375C406.0627939860026,162.79073806762696,396.8609924316406,135.77130074818928,396.8609924316406,121.07623291015625C396.8609924316406,106.38116507212321,399.30644485473636,100.81016771952311,404.035888671875,95.06726837158203C408.76533248901364,89.32436902364095,417.2436396789551,80.44843402862548,421.97308349609375,90.58296203613281C426.7025273132324,100.71749004364014,423.0672580464681,132.83258298238118,429.1479797363281,148.87892150878906C435.22870142618814,164.92526003519694,447.16593271891276,171.22421969095865,454.2601013183594,175.78475952148438C461.354269917806,180.3452993520101,463.43795989990235,186.26906609853108,466.8161315917969,173.09417724609375C470.1943032836914,159.91928839365642,470.67711715698243,122.88939009348552,472.1972961425781,105.82959747314453C473.7174751281738,88.76980485280355,467.4558903503418,78.79521354675293,474.88787841796875,82.5112075805664C482.3198664855957,86.22720161437988,502.5381057739258,108.83856609344483,511.6591796875,125.56053924560547C520.7802536010743,142.2825123977661,515.3796449788412,162.01046047210693,523.318359375,171.30044555664062C531.2570737711588,180.59043064117432,550.264555460612,184.00896902720135,553.8116455078125,174.8878936767578C557.358735555013,165.76681832631428,542.4902795410156,137.56502480824787,542.1524658203125,122.86995697021484C541.8146520996094,108.1748891321818,544.5859505208333,95.50971411387125,552.0179443359375,96.8609848022461C559.4499381510417,98.21225549062093,571.3109464518229,117.03886646270752,581.6143798828125,130.0448455810547C591.9178133138021,143.05082469940186,596.4230069986979,161.86547037760417,606.7264404296875,165.91928100585938C617.0298738606771,169.97309163411458,632.4379722086588,162.2107595570882,636.3228759765625,151.5695037841797C640.2077797444662,140.92824801127117,622.4558916219075,113.80866806030274,627.354248046875,109.41703796386719C632.2526044718425,105.02540786743164,654.2242268880208,118.11658444722494,662.3318481445312,128.25111389160156C670.4394694010417,138.3856433359782,662.8026637776693,158.16143257141113,670.403564453125,163.22869873046875C678.0044651285807,168.29596488952637,697.7922563680013,166.3049340057373,702.6906127929688,155.15695190429688C707.5889692179362,144.00896980285646,695.568002319336,116.36621790568034,696.4125366210938,104.03587341308594C697.2570709228515,91.70552892049153,699.9117787679037,81.74738179524739,707.1748657226562,89.68609619140625C714.4379526774088,97.62481058756511,726.8699673461914,130.81763676961262,734.9776000976562,146.18833923339844C743.0852328491211,161.55904169718426,743.9746203613281,166.7399057261149,750.2242431640625,171.30044555664062C756.4738659667969,175.86098538716635,764.4454525756836,179.69358005523682,768.1614379882812,170.40359497070312C771.8774234008789,161.11360988616943,768.9416865030925,134.81016338348388,769.9551391601562,121.97309112548828C770.96859181722,109.13601886749268,769.995512491862,104.94468929290771,773.5426025390625,102.24214935302734C777.089692586263,99.53960941314698,788.7892456054688,98.84006277720134,788.7892456054688,107.62332153320312C788.7892456054688,116.40658028920491,772.8669636027018,139.58893786112466,773.5426025390625,148.87892150878906C774.2182414754232,158.16890515645346,788.8296189371745,155.43048934936525,792.376708984375,156.95066833496094" fill="none" stroke-width="8" stroke="#baf2d8" stroke-linecap="round" stroke-dasharray="0 0" stroke-opacity="1"></path><defs><linearGradient id="SvgjsLinearGradient1000"><stop stop-color="hsl(37, 99%, 67%)" offset="0"></stop><stop stop-color="hsl(316, 73%, 52%)" offset="1"></stop></linearGradient></defs></svg>