<svg xmlns="http://www.w3.org/2000/svg" version="1.1" xmlns:xlink="http://www.w3.org/1999/xlink" xmlns:svgjs="http://svgjs.dev/svgjs" width="1200" height="500" preserveAspectRatio="none" viewBox="0 0 1200 500"><g mask="url(&quot;#SvgjsMask1063&quot;)" fill="none"><path d="M600 508.08C667.01 508.46 730.17 474.73 774.26 424.26 815.67 376.85 822.18 312.85 825.39 250 828.84 182.26 841.45 104.47 793.03 56.97 744.78 9.63 667.5 24.76 600 28.81 538.31 32.51 475.33 38.12 428.8 78.8 379.3 122.07 347.2 184.24 346.98 250 346.76 315.96 381.43 375.29 427.61 422.39 474.31 470.02 533.3 507.73 600 508.08" fill="rgba(231, 232, 233, 0.26)"></path><path d="M600 367.31C630.46 367.48 659.17 352.15 679.21 329.21 698.03 307.66 700.99 278.57 702.45 250 704.02 219.21 709.75 183.85 687.74 162.26 665.81 140.74 630.68 147.62 600 149.46 571.96 151.14 543.33 153.69 522.18 172.18 499.68 191.85 485.09 220.11 484.99 250 484.89 279.98 500.65 306.95 521.64 328.36 542.87 350.01 569.68 367.15 600 367.31" fill="rgba(225, 227, 229, 0.53)"></path></g><defs><mask id="SvgjsMask1063"><rect width="1200" height="500" fill="#ffffff"></rect></mask></defs></svg>